<svg width="25" height="25" viewBox="0 0 25 25" fill="none" xmlns="http://www.w3.org/2000/svg">
<path fill-rule="evenodd" clip-rule="evenodd" d="M5.55273 4.01294C5.28752 4.01294 5.03316 4.1183 4.84563 4.30583C4.65809 4.49337 4.55273 4.74772 4.55273 5.01294V19.0129C4.55273 19.2782 4.65809 19.5325 4.84563 19.72C5.03316 19.9076 5.28752 20.0129 5.55273 20.0129H19.5527C19.8179 20.0129 20.0723 19.9076 20.2598 19.72C20.4474 19.5325 20.5527 19.2782 20.5527 19.0129V12.0129C20.5527 11.4607 21.0005 11.0129 21.5527 11.0129C22.105 11.0129 22.5527 11.4607 22.5527 12.0129V19.0129C22.5527 19.8086 22.2367 20.5717 21.6741 21.1343C21.1114 21.6969 20.3484 22.0129 19.5527 22.0129H5.55273C4.75708 22.0129 3.99402 21.6969 3.43141 21.1343C2.8688 20.5716 2.55273 19.8086 2.55273 19.0129V5.01294C2.55273 4.21729 2.8688 3.45423 3.43141 2.89162C3.99402 2.32901 4.75709 2.01294 5.55273 2.01294H16.5527C17.105 2.01294 17.5527 2.46065 17.5527 3.01294C17.5527 3.56522 17.105 4.01294 16.5527 4.01294H5.55273ZM21.8456 3.30583C22.2362 2.91531 22.8693 2.91531 23.2598 3.30583C23.6504 3.69636 23.6504 4.32952 23.2598 4.72005L13.2598 14.72C12.8693 15.1106 12.2362 15.1106 11.8456 14.72L8.84563 11.72C8.4551 11.3295 8.4551 10.6964 8.84563 10.3058C9.23615 9.91531 9.86932 9.91531 10.2598 10.3058L12.5527 12.5987L21.8456 3.30583Z" fill="#989898"/>
</svg>
