<svg width="150" height="150" viewBox="0 0 150 150" fill="none" xmlns="http://www.w3.org/2000/svg">
<path d="M142.969 23.4375H60.7992C60.2074 18.2946 57.745 13.5489 53.8809 10.1039C50.0167 6.65885 45.0206 4.75513 39.8438 4.75513C34.6669 4.75513 29.6708 6.65885 25.8066 10.1039C21.9425 13.5489 19.4801 18.2946 18.8883 23.4375H7.03125C6.40965 23.4375 5.81351 23.6845 5.37397 24.124C4.93443 24.5635 4.6875 25.1597 4.6875 25.7813V119.531C4.6875 120.153 4.93443 120.749 5.37397 121.189C5.81351 121.628 6.40965 121.875 7.03125 121.875H95.1234L104.297 143.255C104.478 143.676 104.778 144.035 105.161 144.288C105.544 144.54 105.992 144.675 106.451 144.675H106.549C107.024 144.655 107.482 144.491 107.861 144.206C108.241 143.92 108.525 143.525 108.675 143.074L114.933 124.298L122.187 121.875H142.969C143.59 121.875 144.186 121.628 144.626 121.189C145.066 120.749 145.312 120.153 145.312 119.531V25.7813C145.312 25.1597 145.066 24.5635 144.626 24.124C144.186 23.6845 143.59 23.4375 142.969 23.4375ZM39.8438 9.37502C44.1934 9.37999 48.3635 11.1101 51.4392 14.1858C54.5149 17.2615 56.245 21.4316 56.25 25.7813C56.25 36.3446 44.468 53.2031 39.8438 59.4211C35.2172 53.2031 23.4375 36.3539 23.4375 25.7813C23.4425 21.4316 25.1726 17.2615 28.2483 14.1858C31.324 11.1101 35.4941 9.37999 39.8438 9.37502ZM38.0133 64.7461C38.2329 65.0207 38.5114 65.2424 38.8282 65.3947C39.1451 65.547 39.4922 65.6261 39.8438 65.6261C40.1953 65.6261 40.5424 65.547 40.8593 65.3947C41.1761 65.2424 41.4546 65.0207 41.6742 64.7461C41.9437 64.4086 44.3016 61.425 47.2664 57.1031C53.0906 58.4649 56.25 61.2024 56.25 63.2813C56.25 66.6 49.2328 70.3125 39.8438 70.3125C30.4547 70.3125 23.4375 66.6 23.4375 63.2813C23.4375 61.2024 26.5969 58.4649 32.4211 57.1031C35.3906 61.425 37.7344 64.4086 38.0133 64.7461ZM112.327 120.22C111.982 120.335 111.668 120.529 111.411 120.786C111.154 121.043 110.96 121.357 110.845 121.702L106.158 135.743L91.0148 100.39L126.368 115.547L112.327 120.22ZM140.625 117.188H134.848C135.054 116.903 135.193 116.576 135.256 116.231C135.319 115.885 135.303 115.53 135.21 115.191C135.117 114.853 134.95 114.539 134.719 114.274C134.489 114.009 134.202 113.799 133.88 113.66L87.4734 93.7735C87.0429 93.589 86.567 93.5378 86.1071 93.6264C85.6472 93.715 85.2244 93.9394 84.8932 94.2705C84.562 94.6017 84.3376 95.0245 84.249 95.4845C84.1604 95.9444 84.2116 96.4203 84.3961 96.8508L93.1148 117.188H9.375V28.125H18.9211C19.8305 35.9578 24.9492 45.5485 29.6766 52.9688C22.9453 54.9352 18.75 58.7906 18.75 63.2813C18.75 69.9633 27.818 75 39.8438 75C51.8695 75 60.9375 69.9633 60.9375 63.2813C60.9375 58.7906 56.7422 54.9352 50.0109 52.9688C54.7383 45.5531 59.8547 35.9625 60.7664 28.125H140.625V117.188Z" fill="#48A740"/>
<path d="M51.5625 25.7812C51.5625 23.4635 50.8752 21.1978 49.5875 19.2706C48.2999 17.3435 46.4696 15.8415 44.3283 14.9545C42.187 14.0676 39.8308 13.8355 37.5575 14.2877C35.2843 14.7398 33.1962 15.8559 31.5573 17.4948C29.9184 19.1337 28.8023 21.2218 28.3502 23.495C27.898 25.7682 28.1301 28.1245 29.017 30.2658C29.904 32.4071 31.406 34.2373 33.3332 35.525C35.2603 36.8127 37.526 37.5 39.8438 37.5C42.9506 37.4963 45.9292 36.2604 48.126 34.0635C50.3229 31.8666 51.5588 28.8881 51.5625 25.7812ZM32.8125 25.7812C32.8125 24.3906 33.2249 23.0312 33.9975 21.8749C34.7701 20.7186 35.8682 19.8174 37.153 19.2852C38.4378 18.753 39.8516 18.6138 41.2155 18.8851C42.5794 19.1564 43.8323 19.8261 44.8156 20.8094C45.7989 21.7927 46.4686 23.0456 46.7399 24.4095C47.0112 25.7734 46.872 27.1872 46.3398 28.472C45.8076 29.7568 44.9064 30.8549 43.7501 31.6275C42.5938 32.4001 41.2344 32.8125 39.8438 32.8125C37.979 32.8125 36.1905 32.0717 34.8719 30.7531C33.5533 29.4345 32.8125 27.646 32.8125 25.7812Z" fill="#48A740"/>
<path d="M65.625 60.9375H75V65.625H65.625V60.9375Z" fill="#48A740"/>
<path d="M84.375 60.9375H93.75V65.625H84.375V60.9375Z" fill="#48A740"/>
<path d="M103.125 60.9375H112.5V65.625H103.125V60.9375Z" fill="#48A740"/>
<path d="M121.875 60.9375H131.25V65.625H121.875V60.9375Z" fill="#48A740"/>
<path d="M84.375 84.375H93.75V89.0625H84.375V84.375Z" fill="#48A740"/>
<path d="M103.125 84.375H112.5V89.0625H103.125V84.375Z" fill="#48A740"/>
<path d="M121.875 84.375H131.25V89.0625H121.875V84.375Z" fill="#48A740"/>
<path d="M126.562 70.3125H131.25V79.6875H126.562V70.3125Z" fill="#48A740"/>
<path d="M82.0312 51.5625H128.906C129.528 51.5625 130.124 51.3156 130.564 50.876C131.003 50.4365 131.25 49.8404 131.25 49.2188V39.8438C131.25 39.2221 131.003 38.626 130.564 38.1865C130.124 37.7469 129.528 37.5 128.906 37.5H82.0312C81.4096 37.5 80.8135 37.7469 80.374 38.1865C79.9344 38.626 79.6875 39.2221 79.6875 39.8438V49.2188C79.6875 49.8404 79.9344 50.4365 80.374 50.876C80.8135 51.3156 81.4096 51.5625 82.0312 51.5625ZM84.375 42.1875H126.562V46.875H84.375V42.1875Z" fill="#48A740"/>
<path d="M18.75 86.7188V105.469C18.75 106.09 18.9969 106.686 19.4365 107.126C19.876 107.566 20.4721 107.812 21.0938 107.812H77.3438C77.9654 107.812 78.5615 107.566 79.001 107.126C79.4406 106.686 79.6875 106.09 79.6875 105.469V86.7188C79.6875 86.0971 79.4406 85.501 79.001 85.0615C78.5615 84.6219 77.9654 84.375 77.3438 84.375H21.0938C20.4721 84.375 19.876 84.6219 19.4365 85.0615C18.9969 85.501 18.75 86.0971 18.75 86.7188ZM46.875 103.125H37.5V89.0625H46.875V103.125ZM51.5625 89.0625H60.9375V103.125H51.5625V89.0625ZM75 103.125H65.625V89.0625H75V103.125ZM23.4375 89.0625H32.8125V103.125H23.4375V89.0625Z" fill="#48A740"/>
</svg>
