<svg width="150" height="150" viewBox="0 0 150 150" fill="none" xmlns="http://www.w3.org/2000/svg">
<path d="M87.5001 112.5H62.5002C61.1203 112.5 60.0003 113.617 60.0003 115V132.5C60.0003 133.882 61.1203 135 62.5002 135H87.5001C88.8826 135 90 133.882 90 132.5V115C90 113.617 88.8826 112.5 87.5001 112.5ZM84.9999 130H64.9998V117.5H84.9999V130Z" fill="#48A740"/>
<path d="M77.5002 115H72.5001V132.5H77.5002V115Z" fill="#48A740"/>
<path d="M99.9999 15H50.0001C48.6202 15 47.5002 16.12 47.5002 17.4999V132.5C47.5002 133.882 48.6202 135 50.0001 135H100C101.383 135 102.5 133.882 102.5 132.5V17.4999C102.5 16.12 101.382 15 99.9999 15ZM97.5 130H52.5V20.0001H97.5V130Z" fill="#48A740"/>
<path d="M50.0001 24.9999H30C28.6201 24.9999 27.5001 26.1199 27.5001 27.4998V132.5C27.5001 133.882 28.6201 135 30 135L50.0001 135C51.38 135 52.5 133.882 52.5 132.5V27.4998C52.5 26.1199 51.38 24.9999 50.0001 24.9999ZM47.4999 130H32.4999V30H47.4999V130Z" fill="#48A740"/>
<path d="M30 24.9999H22.5V30H30L30 24.9999Z" fill="#48A740"/>
<path d="M107.5 15H42.5001V20.0001H107.5V15Z" fill="#48A740"/>
<path d="M62.5002 99.9999H57.5001V107.5H62.5002V99.9999Z" fill="#48A740"/>
<path d="M72.5001 99.9999H67.5V107.5H72.5001V99.9999Z" fill="#48A740"/>
<path d="M82.5 99.9999H77.4999V107.5H82.5V99.9999Z" fill="#48A740"/>
<path d="M92.5002 99.9999H87.5001V107.5H92.5002V99.9999Z" fill="#48A740"/>
<path d="M62.5002 87.5001H57.5001V95.0001H62.5002V87.5001Z" fill="#48A740"/>
<path d="M72.5001 87.5001H67.5V95.0001H72.5001V87.5001Z" fill="#48A740"/>
<path d="M82.5 87.5001H77.4999V95.0001H82.5V87.5001Z" fill="#48A740"/>
<path d="M92.5002 87.5001H87.5001V95.0001H92.5002V87.5001Z" fill="#48A740"/>
<path d="M62.5002 75H57.5001V82.5H62.5002V75Z" fill="#48A740"/>
<path d="M72.5001 75H67.5V82.5H72.5001V75Z" fill="#48A740"/>
<path d="M82.5 75H77.4999V82.5H82.5V75Z" fill="#48A740"/>
<path d="M92.5002 75H87.5001V82.5H92.5002V75Z" fill="#48A740"/>
<path d="M62.5002 62.4999H57.5001V69.9999H62.5002V62.4999Z" fill="#48A740"/>
<path d="M72.5001 62.4999H67.5V69.9999H72.5001V62.4999Z" fill="#48A740"/>
<path d="M82.5 62.4999H77.4999V69.9999H82.5V62.4999Z" fill="#48A740"/>
<path d="M92.5002 62.4999H87.5001V69.9999H92.5002V62.4999Z" fill="#48A740"/>
<path d="M62.5002 50.0001H57.5001V57.5001H62.5002V50.0001Z" fill="#48A740"/>
<path d="M72.5001 50.0001H67.5V57.5001H72.5001V50.0001Z" fill="#48A740"/>
<path d="M82.5 50.0001H77.4999V57.5001H82.5V50.0001Z" fill="#48A740"/>
<path d="M92.5002 50.0001H87.5001V57.5001H92.5002V50.0001Z" fill="#48A740"/>
<path d="M62.5002 37.5H57.5001V45H62.5002V37.5Z" fill="#48A740"/>
<path d="M72.5001 37.5H67.5V45H72.5001V37.5Z" fill="#48A740"/>
<path d="M82.5 37.5H77.4999V45H82.5V37.5Z" fill="#48A740"/>
<path d="M92.5002 37.5H87.5001V45H92.5002V37.5Z" fill="#48A740"/>
<path d="M62.5002 24.9999H57.5001V32.4999H62.5002V24.9999Z" fill="#48A740"/>
<path d="M72.5001 24.9999H67.5V32.4999H72.5001V24.9999Z" fill="#48A740"/>
<path d="M82.5 24.9999H77.4999V32.4999H82.5V24.9999Z" fill="#48A740"/>
<path d="M92.5002 24.9999H87.5001V32.4999H92.5002V24.9999Z" fill="#48A740"/>
<path d="M42.5001 112.5H37.5V120H42.5001V112.5Z" fill="#48A740"/>
<path d="M42.5001 99.9999H37.5V107.5H42.5001V99.9999Z" fill="#48A740"/>
<path d="M42.5001 87.5001H37.5V95.0001H42.5001V87.5001Z" fill="#48A740"/>
<path d="M42.5001 75H37.5V82.5H42.5001V75Z" fill="#48A740"/>
<path d="M42.5001 62.4999H37.5V69.9999H42.5001V62.4999Z" fill="#48A740"/>
<path d="M42.5001 50.0001H37.5V57.5001H42.5001V50.0001Z" fill="#48A740"/>
<path d="M42.5001 37.5H37.5V45H42.5001V37.5Z" fill="#48A740"/>
<path d="M120 24.9999H99.9999C98.6174 24.9999 97.5 26.1199 97.5 27.4998V132.5C97.5 133.882 98.6177 135 100 135L120 135C121.383 135 122.5 133.882 122.5 132.5V27.4998C122.5 26.1199 121.383 24.9999 120 24.9999ZM117.5 130H102.5V30H117.5V130Z" fill="#48A740"/>
<path d="M127.5 24.9999H120V30H127.5V24.9999Z" fill="#48A740"/>
<path d="M112.5 112.5H107.5V120H112.5V112.5Z" fill="#48A740"/>
<path d="M112.5 99.9999H107.5V107.5H112.5V99.9999Z" fill="#48A740"/>
<path d="M112.5 87.5001H107.5V95.0001H112.5V87.5001Z" fill="#48A740"/>
<path d="M112.5 75H107.5V82.5H112.5V75Z" fill="#48A740"/>
<path d="M112.5 62.4999H107.5V69.9999H112.5V62.4999Z" fill="#48A740"/>
<path d="M112.5 50.0001H107.5V57.5001H112.5V50.0001Z" fill="#48A740"/>
<path d="M112.5 37.5H107.5V45H112.5V37.5Z" fill="#48A740"/>
<path d="M30 130H0V135L30 135L30 130Z" fill="#48A740"/>
<path d="M150 130H120V135L150 135V130Z" fill="#48A740"/>
<path d="M15 80H9.9999V132.5H15V80Z" fill="#48A740"/>
<path d="M4.00007 83L1.00001 87.0001L20.9999 102L24 98L4.00007 83Z" fill="#48A740"/>
<path d="M20.9935 83.0007L0.995172 98.0063L3.99623 102.006L23.9946 87.0003L20.9935 83.0007Z" fill="#48A740"/>
<path d="M140 80H135V132.5H140V80Z" fill="#48A740"/>
<path d="M128.998 83.0019L126 86.9998L146 102L148.998 98.0018L128.998 83.0019Z" fill="#48A740"/>
<path d="M145.988 83.0146L125.986 98.009L128.983 102.007L148.985 87.0128L145.988 83.0146Z" fill="#48A740"/>
</svg>
