<svg width="150" height="150" viewBox="0 0 150 150" fill="none" xmlns="http://www.w3.org/2000/svg">
<path d="M17.8814 85.278C16.5901 85.8839 16.0203 87.4092 16.5958 88.7128L22.4942 101.375C22.784 102.005 23.3126 102.496 23.9628 102.738C24.2477 102.842 24.5498 102.895 24.8535 102.895C25.2336 102.898 25.6088 102.817 25.9544 102.66L70.5192 81.8449L66.4827 124.05C66.4047 124.88 66.7248 125.697 67.3463 126.252C69.3001 127.869 71.735 128.79 74.2683 128.873C74.9669 128.873 75.6614 128.785 76.3387 128.612C79.9565 127.668 82.7616 124.444 84.6752 118.938L102.213 67.0083L136.946 50.8065C147.17 46.0361 152.439 36.3632 148.9 28.8131C146.892 24.8669 143.046 22.1825 138.65 21.6563C133.766 20.9191 128.774 21.6875 124.337 23.8596L84.2549 42.6547L41.1596 25.7987C35.7324 23.7546 31.4341 23.8071 28.4196 25.9834C25.8903 28.0587 24.4513 31.1782 24.5128 34.4496C24.5391 35.2795 24.9569 36.0471 25.64 36.5216L54.6589 56.4701L38.04 64.3346L10.1729 57.2557C9.03098 56.975 7.84228 57.4897 7.26353 58.5142L0.317675 71.0177C-0.0427115 71.6802 -0.0993553 72.4667 0.16252 73.1743C0.422754 73.8828 0.976058 74.4435 1.68123 74.7144L22.3119 83.2348L17.8814 85.278ZM29.8858 33.1394C30.0401 32.0311 30.6008 31.0222 31.4595 30.308C32.9544 29.2326 35.6807 29.3902 39.324 30.7529L77.7023 45.7217L60.1903 53.9006L29.8858 33.1394ZM6.29402 70.9923L10.8551 62.8922L37.6723 69.5499C38.2502 69.696 38.8602 69.641 39.4036 69.3939L126.566 28.6826C130.031 26.9734 133.934 26.3511 137.76 26.8995C140.442 27.1466 142.832 28.6949 144.156 31.0411C146.356 35.7606 142.032 42.6547 134.717 46.0624L104.519 60.2193L106.354 54.7913C106.818 53.3949 106.06 51.886 104.664 51.423C103.266 50.96 101.758 51.7178 101.295 53.1142L79.7201 117.312C78.4354 120.957 76.8362 123.133 75.054 123.604C73.9498 123.816 72.8071 123.6 71.8556 123.002L77.0989 67.9508C77.236 66.5035 76.1745 65.2187 74.7256 65.0816C73.2783 64.9429 71.9935 66.006 71.8556 67.4533L71.0437 75.8678L26.0586 96.8391L22.3645 88.9747L29.7553 85.5153C30.7067 85.0958 31.3199 84.155 31.3199 83.1165C31.3199 82.0773 30.7067 81.1365 29.7553 80.7178L6.29402 70.9923Z" fill="#48A740"/>
</svg>
